<?xml version="1.0" encoding="UTF-8"?>
<svg id="Layer_3" data-name="Layer 3" xmlns="http://www.w3.org/2000/svg" viewBox="0 0 366.75 354">
  <defs>
    <style>
      .cls-1 {
        fill: #502798;
      }
    </style>
  </defs>
  <path class="cls-1" d="M349.5,97.88c-14.02-21.37-34.52-29.13-41.29-31.38-2.28-6.48-9.63-24.62-28.8-37.37-26.67-17.72-55.24-11.06-60.04-9.85-3.92-3.1-24.33-18.56-53.18-15.2-25.92,3.02-41.43,19.23-45.25,23.45-3.2-.8-30.37-7.11-52.18,10.9-13.15,10.86-17.45,24.86-18.82,30.39C20.65,78.83,1.77,107.33,4.03,137.51c2.38,31.8,27.65,58.06,60.11,61.77,2.96,3.99,8.44,10.32,17.17,15.52,9.26,5.51,17.94,7.22,22.97,7.84,4.92.57,9.01-3.32,8.94-7.54-.06-3.77-3.44-7.26-7.83-7.35-3.21-.1-9.37-.75-15.82-4.51-4.25-2.48-7.14-5.44-8.92-7.6.96-.41,2.04-.95,3.17-1.64.91-.56,1.72-1.13,2.42-1.67,2.86-2.41,3.32-6.68,1.07-9.61-2.29-2.98-6.64-3.59-9.7-1.32-.69.64-1.64,1.4-2.88,2.08-1.42.79-2.74,1.21-3.73,1.44-21.67-.39-40.96-12.44-48.81-30.56-10.18-23.52.32-54,26.42-68.37-.32,3.62-.48,10.93,2.98,19.16,3.81,9.06,9.96,14.31,12.88,16.51-2.16,2.63-4.7,6.28-6.81,11-1.37,3.04-2.26,5.89-2.85,8.34-.49,3.69,1.67,7.18,4.99,8.33,3.68,1.28,7.97-.61,9.57-4.45.51-2.18,2.96-11.53,12.17-17.78,8.2-5.58,16.6-5.19,19.07-4.99,4.4.79,8.24-2.27,8.56-5.84.25-2.78-1.66-5.69-4.76-6.84-4.55-.49-11.06-.59-18.47,1.33-3.51.91-6.53,2.1-9.05,3.29-11.82-12.87-15.69-30.89-9.78-46.22,7.37-19.12,28.78-31,51.06-27.07,1.68.36,8.33,1.61,13.15-2.37.64-.53,1.31-1.2,1.95-2.06,2.47-2.97,14.15-16.38,34.49-18.87,19.35-2.37,33.38,6.76,36.74,9.08-4.87,2.09-13.5,6.56-21.12,15.52-10.25,12.05-12.57,25.02-13.22,30.39.15,3.52,2.16,6.52,4.86,7.4,3.75,1.23,8.9-1.62,10-7.07,6.74-22.37,26.16-38.65,49.21-41.28,23.69-2.71,46.84,9.5,58.13,30.71-6.88-.9-24.76-2.3-43.6,7.6-12.67,6.65-20.46,15.63-24.49,21.08-3.18,4.34-1.68,10.06,1.98,12,2.91,1.54,7.11.64,9.69-2.53,2.09-2.43,24.42-27.58,55.39-24.02,30.06,3.46,55.85,32.54,56.84,69.76-3.52-3.78-8.47-8.12-15.12-11.64-1.86-.99-3.67-1.81-5.41-2.51-3.28-1.97-7.57-.8-9.36,2.43-1.83,3.3-.44,7.68,3.13,9.33,3.72,1.62,10.56,5.21,16.21,12.47,11.74,15.09,8.1,32.84,7.58,35.17-.7,3.15-3.28,13.02-11.99,21.45-11.86,11.46-27.11,12.57-35.06,12.24,4.5-3.96,8.47-8.5,11.84-14.43,2.99-5.25,4.87-10.47,6.06-15.24,1.18-4.76,1.67-9.07,1.87-12.51,0-32.21-26.36-58.56-58.57-58.56h-87.96c-16.11,0-30.75,6.59-41.37,17.2-10.61,10.62-17.2,25.26-17.2,41.36s6.59,30.75,17.2,41.37c15.38,15.37,35.91,16.8,41.37,17.2,1.43.11.72.01,36.66,0h6.16c.02,7.94.04,15.87.05,23.8.09,1.83.52,4.91,2.76,6.64,2.73,2.13,7.27,2.08,10.51,0,14.72-9.41,31.71-20.37,54.59-35.27.07-.05.14-.09.21-.13,22.46,7.08,46.89.98,62.54-15.73,21.89-23.36,14.4-54.44,13.87-56.47,1.41-4.8,10.22-36.7-9.24-66.39ZM228.06,235.92c-.04-.8-.24-2.95-1.84-4.88-2.61-3.14-6.66-2.92-7.11-2.89-4.37-.03-10.83-.05-18.67,0-22.08.16-22.82.02-28.31,0-3.03-.01-18.92-.36-31.78-13.22-8.16-8.15-13.22-19.4-13.22-31.78s5.06-23.63,13.22-31.78c8.15-8.16,19.41-13.22,31.78-13.22h85.54c24.75,0,45,20.25,45,45-.01,2.27-.19,5.24-.83,8.6-.65,3.36-1.76,7.11-3.67,10.96-3.97,8.03-9.57,12.81-13.83,16.2-20.04,15.93-49.87,32.29-56.24,35.75,0-6.25-.03-12.5-.04-18.74Z"/>
  <circle class="cls-1" cx="180.63" cy="181.08" r="9.12"/>
  <circle class="cls-1" cx="213.66" cy="181.08" r="9.12"/>
  <circle class="cls-1" cx="247.84" cy="181.08" r="9.12"/>
  <rect class="cls-1" x="171.8" y="285.68" width="84.72" height="14.2" rx="7.1" ry="7.1"/>
  <rect class="cls-1" x="180.61" y="309.68" width="67.93" height="14.2" rx="7.1" ry="7.1"/>
  <rect class="cls-1" x="191.62" y="333.68" width="47.23" height="14.2" rx="7.1" ry="7.1"/>
  <path class="cls-1" d="M148.24,103.81c-1.73-3.84-5.2-10.14-11.81-15.69-10.8-9.08-22.84-10.17-27.08-10.35-3.45-.47-6.05-3.05-6.39-5.94-.42-3.69,2.89-7.62,7.54-7.67,5.19.09,18.16,1,31.18,9.79,11.68,7.88,17.33,17.99,19.6,22.71,1.73,3.49.74,7.6-2.04,9.63-3.28,2.41-8.51,1.5-11.01-2.48Z"/>
</svg>