<?xml version="1.0" encoding="UTF-8"?>
<svg xmlns="http://www.w3.org/2000/svg" viewBox="0 0 358.1 344.27">
  <defs>
    <style>
      .cls-1 {
        fill: #1a4c65;
      }

      .cls-2 {
        fill: #fff;
      }
    </style>
  </defs>
  <g id="Layer_2" data-name="Layer 2">
    <g id="Layer_2-2" data-name="Layer 2">
      <rect class="cls-1" width="358.1" height="344.27" rx="40.05" ry="40.05"/>
    </g>
  </g>
  <g id="Layer_1" data-name="Layer 1">
    <g id="Layer_3" data-name="Layer 3">
      <path class="cls-2" d="M331,163.19c1.61,8.74,3.91,32.9-14.35,52.4-10.94,11.68-26.6,18.37-42.96,18.37-4.45,0-8.86-.48-13.19-1.44-9.5,6.18-18.04,11.7-26,16.83,8.13,1.07,14.41,8.04,14.41,16.45,0,5.71-2.91,10.76-7.31,13.75.59,1.7.92,3.54.92,5.45,0,6.19-3.41,11.61-8.46,14.45.46,1.51.7,3.11.7,4.76,0,9.15-7.45,16.6-16.6,16.6h-26.44c-9.15,0-16.6-7.45-16.6-16.6,0-1.47.2-2.92.56-4.27-5.55-2.7-9.37-8.38-9.37-14.94,0-1.78.28-3.5.82-5.1-4.72-2.93-7.87-8.15-7.87-14.1,0-9.15,7.45-16.6,16.6-16.6h18.17c-.43-1.44-.71-3.07-.81-4.9v-.27s-.03-8.42-.03-8.42c-10.3.01-15.84.02-18.91.03h-2.73c-1.25.01-1.76,0-2.56-.07-16.5-1.19-29.95-6.89-40-16.93-.51-.51-1.02-1.04-1.52-1.57-3.02,2.28-6.75,3.56-10.55,3.56-.68,0-1.37-.03-2.04-.12-8.13-.99-15.74-3.59-22.7-7.73-5.28-3.14-9.96-7.04-13.98-11.63-28.94-5.37-50.99-29.43-53.19-58.8-2.06-27.4,13.66-52.96,38.74-64.03,2.56-7.12,7.53-16.68,17.01-24.51,9.98-8.25,22.63-12.61,36.58-12.61,3.21,0,6.08.24,8.48.55,7.23-6.59,20.3-15.73,38.62-17.86,2.59-.31,5.21-.46,7.79-.46,17.52,0,31.02,6.83,38.54,11.81,3.44-.58,7.71-1.04,12.61-1.04,14.2,0,27.69,3.98,39,11.49,13.99,9.31,21.52,21.72,25.38,30.48,9.67,4,23.6,12.08,33.81,27.66,9.2,14.07,11.72,28.57,11.72,40.23,0,8.12-1.21,14.86-2.26,19.14Z"/>
      <path class="cls-1" d="M312.4,109.81c-11.22-17.11-27.63-23.31-33.05-25.11-1.82-5.19-7.71-19.71-23.05-29.91-21.35-14.18-44.22-8.85-48.06-7.89-3.14-2.48-19.48-14.86-42.57-12.17-20.74,2.41-33.17,15.39-36.22,18.77-2.56-.64-24.31-5.69-41.76,8.73-10.53,8.7-13.97,19.9-15.06,24.33-23.44,8.01-38.56,30.83-36.75,54.98,1.9,25.45,22.13,46.47,48.12,49.44,2.37,3.19,6.75,8.26,13.74,12.42,7.42,4.41,14.37,5.78,18.39,6.27,3.94.46,7.21-2.65,7.16-6.03-.04-3.02-2.75-5.81-6.27-5.89-2.57-.08-7.5-.6-12.66-3.6-3.4-1.99-5.71-4.36-7.14-6.08.76-.33,1.63-.76,2.53-1.31.73-.45,1.38-.91,1.93-1.33,2.29-1.93,2.65-5.34.85-7.69-1.84-2.38-5.32-2.87-7.77-1.06-.56.51-1.31,1.13-2.3,1.66-1.14.63-2.2.97-2.98,1.16-17.35-.32-32.78-9.96-39.08-24.46-8.15-18.82.25-43.23,21.15-54.73-.25,2.89-.38,8.75,2.38,15.34,3.05,7.25,7.97,11.46,10.31,13.22-1.73,2.11-3.76,5.03-5.45,8.8-1.09,2.44-1.81,4.72-2.28,6.67-.39,2.95,1.33,5.75,4,6.66,2.95,1.03,6.38-.49,7.66-3.56.4-1.75,2.37-9.23,9.74-14.23,6.57-4.47,13.28-4.15,15.26-4,3.52.63,6.6-1.81,6.85-4.68.2-2.23-1.33-4.56-3.81-5.47-3.64-.39-8.85-.47-14.78,1.06-2.81.73-5.22,1.68-7.24,2.63-9.46-10.3-12.56-24.72-7.83-37,5.9-15.3,23.04-24.82,40.87-21.67,1.34.28,6.66,1.29,10.53-1.9.51-.43,1.05-.96,1.56-1.65,1.98-2.38,11.33-13.11,27.61-15.11,15.49-1.9,26.72,5.41,29.41,7.26-3.9,1.67-10.8,5.25-16.91,12.42-8.2,9.65-10.06,20.02-10.59,24.33.12,2.82,1.73,5.22,3.89,5.92,3,.98,7.12-1.3,8.01-5.66,5.4-17.9,20.94-30.94,39.39-33.05,18.96-2.17,37.49,7.6,46.53,24.58-5.51-.72-19.82-1.85-34.9,6.08-10.14,5.32-16.38,12.51-19.6,16.88-2.55,3.47-1.34,8.05,1.58,9.6,2.33,1.23,5.69.51,7.76-2.02,1.67-1.94,19.54-22.08,44.34-19.23,24.07,2.77,44.7,26.04,45.5,55.84-2.82-3.03-6.78-6.5-12.1-9.32-1.49-.8-2.94-1.45-4.33-2.01-2.62-1.57-6.06-.64-7.49,1.94-1.46,2.64-.35,6.15,2.5,7.47,2.98,1.3,8.46,4.17,12.98,9.98,9.39,12.08,6.49,26.28,6.06,28.15-.56,2.52-2.62,10.42-9.6,17.17-9.49,9.18-21.7,10.06-28.06,9.8,3.6-3.17,6.78-6.81,9.48-11.55,2.39-4.21,3.9-8.38,4.85-12.2.94-3.81,1.33-7.26,1.5-10.02,0-25.78-21.11-46.88-46.89-46.88h-70.41c-12.89,0-24.61,5.28-33.11,13.76-8.49,8.5-13.76,20.22-13.76,33.11s5.28,24.61,13.76,33.11c12.31,12.3,28.74,13.45,33.11,13.76,1.15.09.58,0,29.34,0h4.93c.01,6.36.03,12.7.04,19.05.08,1.46.42,3.93,2.21,5.32,2.18,1.7,5.82,1.66,8.41,0,11.79-7.54,25.39-16.31,43.7-28.23.05-.04.11-.08.16-.11,17.98,5.67,37.54.79,50.07-12.6,17.52-18.7,11.52-43.58,11.1-45.2,1.13-3.85,8.18-29.38-7.4-53.15h0l.03.03ZM215.2,220.31c-.03-.64-.2-2.36-1.47-3.91-2.09-2.51-5.33-2.34-5.69-2.32-3.5-.02-8.67-.04-14.94,0-17.68.13-18.27.01-22.66,0-2.43,0-15.14-.28-25.44-10.59-6.53-6.52-10.59-15.53-10.59-25.44s4.05-18.91,10.59-25.44c6.52-6.53,15.53-10.59,25.44-10.59h68.47c19.82,0,36.02,16.21,36.02,36.02,0,1.81-.15,4.19-.67,6.88-.52,2.69-1.41,5.69-2.94,8.77-3.18,6.42-7.66,10.26-11.07,12.97-16.04,12.75-39.92,25.85-45.02,28.62,0-5-.02-10.01-.03-15h0v.02Z"/>
      <circle class="cls-1" cx="177.24" cy="176.4" r="7.3"/>
      <circle class="cls-1" cx="203.67" cy="176.4" r="7.3"/>
      <circle class="cls-1" cx="231.03" cy="176.4" r="7.3"/>
      <path class="cls-1" d="M175.85,260.13h56.45c3.14,0,5.68,2.55,5.68,5.68h0c0,3.14-2.55,5.68-5.68,5.68h-56.45c-3.14,0-5.68-2.55-5.68-5.68h0c0-3.14,2.55-5.68,5.68-5.68h0Z"/>
      <path class="cls-1" d="M182.9,279.34h43.01c3.14,0,5.68,2.55,5.68,5.68h0c0,3.14-2.55,5.68-5.68,5.68h-43.01c-3.14,0-5.68-2.55-5.68-5.68h0c0-3.14,2.55-5.68,5.68-5.68Z"/>
      <path class="cls-1" d="M191.71,298.56h26.44c3.14,0,5.68,2.55,5.68,5.68h0c0,3.14-2.55,5.68-5.68,5.68h-26.44c-3.14,0-5.68-2.55-5.68-5.68h0c0-3.14,2.55-5.68,5.68-5.68Z"/>
      <path class="cls-1" d="M151.3,114.55c-1.39-3.07-4.16-8.12-9.45-12.56-8.64-7.26-18.29-8.14-21.67-8.28-2.76-.37-4.84-2.44-5.11-4.75-.34-2.95,2.32-6.1,6.03-6.14,4.15.08,14.54.8,24.96,7.83,9.35,6.3,13.87,14.4,15.69,18.18,1.39,2.8.59,6.08-1.63,7.71-2.62,1.93-6.82,1.2-8.82-1.99h0Z"/>
    </g>
  </g>
</svg>